<svg aria-hidden="true" style="width:0;height:0;position:absolute;overflow:hidden" xmlns="http://www.w3.org/2000/svg"><defs><symbol id="icon-how_hous" viewBox="0 0 32 32"><path fill="#d80000" style="fill:var(--color1,#d80000)" d="m16 7.587 6.667 6V24H20v-8h-8v8H9.333V13.587l6.667-6zM16 4 2.667 16h4v10.667h8v-8h2.667v8h8V16h4L16.001 4z"/></symbol><symbol id="icon-how_payments" viewBox="0 0 32 32"><path fill="#d80000" style="fill:var(--color1,#d80000)" d="M25.333 18.667V8c0-1.467-1.2-2.667-2.667-2.667H3.999A2.675 2.675 0 0 0 1.332 8v10.667c0 1.467 1.2 2.667 2.667 2.667h18.667c1.467 0 2.667-1.2 2.667-2.667zm-2.666 0H4V8h18.667v10.667zm-9.334-9.334c-2.213 0-4 1.787-4 4s1.787 4 4 4 4-1.787 4-4-1.787-4-4-4zm17.334 0V24c0 1.467-1.2 2.667-2.667 2.667H5.333V24H28V9.333h2.667z"/></symbol><symbol id="icon-how_timer" viewBox="0 0 32 32"><path fill="#d80000" style="fill:var(--color1,#d80000)" d="M20.093 1.347h-8v2.667h8V1.347zM14.76 18.68h2.667v-8H14.76v8zm10.707-8.827L27.36 7.96a14.71 14.71 0 0 0-1.88-1.88l-1.893 1.893a11.952 11.952 0 0 0-7.493-2.64c-6.627 0-12 5.373-12 12s5.36 12 12 12 12-5.373 12-12c0-2.813-.987-5.413-2.627-7.48zM16.093 26.68c-5.16 0-9.333-4.173-9.333-9.333s4.173-9.333 9.333-9.333 9.333 4.173 9.333 9.333-4.173 9.333-9.333 9.333z"/></symbol><symbol id="icon-happy" viewBox="0 0 32 32"><path d="M16-.034C7.159-.034-.035 7.158-.035 16S7.159 32.034 16 32.034 32.035 24.842 32.035 16 24.841-.034 16-.034zm0 31C7.748 30.966 1.035 24.252 1.035 16S7.748 1.034 16 1.034 30.965 7.748 30.965 16 24.252 30.966 16 30.966zM10.5 16.5c1.103 0 2-.897 2-2s-.897-2-2-2-2 .897-2 2 .897 2 2 2zm0-3a1.001 1.001 0 1 1-1 1c0-.552.449-1 1-1zm11 3c1.103 0 2-.897 2-2s-.897-2-2-2-2 .897-2 2 .897 2 2 2zm0-3a1.001 1.001 0 1 1-1 1c0-.552.449-1 1-1zm1.323 8.575a8.995 8.995 0 0 1-6.588 2.891 8.977 8.977 0 0 1-6.656-2.967.535.535 0 0 0-.794.717 10.053 10.053 0 0 0 7.45 3.318c2.788 0 5.476-1.179 7.373-3.234a.534.534 0 1 0-.785-.725z"/></symbol><symbol id="btn-arrows" viewBox="0 0 38 32"><path d="M19.024 17.699 6.059 31.295c-.896.94-2.345.94-3.232 0L.672 29.036c-.896-.94-.896-2.459 0-3.389l9.19-9.637-9.19-9.637c-.896-.94-.896-2.459 0-3.389L2.817.705a2.205 2.205 0 0 1 3.232 0l12.965 13.596c.906.94.906 2.459.01 3.399zm18.304-3.398L24.363.705a2.205 2.205 0 0 0-3.232 0l-2.155 2.259c-.896.94-.896 2.459 0 3.389l9.19 9.637-9.19 9.637c-.896.94-.896 2.459 0 3.389l2.155 2.259c.896.94 2.345.94 3.232 0l12.965-13.596c.896-.92.896-2.439 0-3.379z"/></symbol><symbol id="icon-2196f3" viewBox="0 0 37 32"><path d="M16.852.403a1.592 1.592 0 0 0-.641.426c-.06.072-1.621 2.74-3.475 5.934C3.625 22.483.202 28.391.165 28.468a2.406 2.406 0 0 0-.166.623c.003.14.126.543.214.698.12.203.366.449.555.549.277.146.435.172 1.172.192 1.167.026 31.148.063 31.339.037a1.54 1.54 0 0 0 .638-.257c.214-.143.355-.309.478-.563.169-.355.163-.838-.02-1.224-.103-.217-14.782-25.732-15.411-26.787-.26-.438-.523-.852-.583-.921A1.585 1.585 0 0 0 17.738.4a1.732 1.732 0 0 0-.887.003z"/></symbol><symbol id="icon-arrow" viewBox="0 0 20 32"><path fill="#e1edff" style="fill:var(--color1,#e1edff)" d="M19.625 17.699 6.25 31.295c-.924.94-2.419.94-3.334 0L.693 29.036a2.418 2.418 0 0 1 0-3.389l9.481-9.637L.693 6.373a2.418 2.418 0 0 1 0-3.389L2.906.705a2.323 2.323 0 0 1 3.334 0l13.375 13.596c.934.94.934 2.459.01 3.399z"/></symbol><symbol id="step-1" viewBox="0 0 41 32"><path fill="#4189dd" style="fill:var(--color2,#4189dd)" d="M29.821 11.429C29.821 5.117 23.146 0 14.911 0S.001 5.116.001 11.429c0 2.448 1.013 4.711 2.722 6.57-.958 2.16-2.541 3.87-2.564 3.894a.575.575 0 0 0-.111.619.576.576 0 0 0 .526.346c2.622 0 4.798-.875 6.361-1.784 2.308 1.124 5.039 1.784 7.976 1.784 8.235 0 14.91-5.116 14.91-11.429zm-16.058 6.857v-1.164a4.113 4.113 0 0 1-2.249-.811.57.57 0 0 1-.041-.867l.842-.801c.199-.189.494-.197.726-.052.277.173.592.266.919.266h2.015c.466 0 .846-.423.846-.942 0-.425-.259-.799-.629-.909l-3.226-.964c-1.333-.399-2.264-1.673-2.264-3.099 0-1.751 1.366-3.174 3.059-3.219V4.573c0-.316.257-.571.573-.571h1.147c.317 0 .573.256.573.571v1.164a4.105 4.105 0 0 1 2.249.811.57.57 0 0 1 .041.867l-.842.801c-.199.189-.494.197-.726.052a1.72 1.72 0 0 0-.919-.266h-2.015c-.466 0-.846.423-.846.942 0 .425.259.799.629.909l3.226.964c1.333.399 2.264 1.673 2.264 3.099 0 1.752-1.366 3.174-3.059 3.219v1.151a.572.572 0 0 1-.573.571h-1.147a.572.572 0 0 1-.573-.571zm24.804 8.856c1.71-1.859 2.723-4.123 2.723-6.571 0-4.781-3.834-8.871-9.271-10.576.062.471.095.949.095 1.434 0 7.562-7.718 13.714-17.204 13.714-.773 0-1.528-.055-2.275-.134C14.895 29.117 20.198 32 26.379 32c2.938 0 5.668-.66 7.976-1.784 1.563.909 3.738 1.784 6.361 1.784a.57.57 0 0 0 .415-.965c-.022-.024-1.607-1.731-2.565-3.893z"/></symbol><symbol id="step-2" viewBox="0 0 28 32"><path fill="#4189dd" style="fill:var(--color2,#4189dd)" d="M13.935 16c4.398 0 7.963-3.581 7.963-8s-3.565-8-7.963-8-7.963 3.581-7.963 8 3.565 8 7.963 8zm5.96 2.038L16.921 30l-1.991-8.5 1.991-3.5h-5.972l1.991 3.5-1.991 8.5-2.974-11.962C3.539 18.25-.001 21.894-.001 26.4V29c0 1.656 1.338 3 2.986 3h21.899a2.994 2.994 0 0 0 2.986-3v-2.6c0-4.506-3.54-8.15-7.976-8.362z"/></symbol><symbol id="step-3" viewBox="0 0 24 32"><path fill="#4189dd" style="fill:var(--color2,#4189dd)" d="M23.816 6.562 17.631.437a1.525 1.525 0 0 0-1.074-.438h-.385v8h8.086v-.381c0-.394-.158-.775-.442-1.056zM14.151 8.5V0H1.517C.677 0 .001.669.001 1.5v29c0 .831.676 1.5 1.516 1.5h21.226c.84 0 1.516-.669 1.516-1.5V10h-8.591a1.512 1.512 0 0 1-1.516-1.5zm-10.108-4c0-.276.226-.5.505-.5h5.054c.279 0 .505.224.505.5v1c0 .276-.226.5-.505.5H4.548a.503.503 0 0 1-.505-.5v-1zm0 5v-1c0-.276.226-.5.505-.5h5.054c.279 0 .505.224.505.5v1c0 .276-.226.5-.505.5H4.548a.503.503 0 0 1-.505-.5zm9.097 16.493V27.5c0 .276-.226.5-.505.5h-1.011a.503.503 0 0 1-.505-.5v-1.518a3.648 3.648 0 0 1-1.982-.709.498.498 0 0 1-.036-.759l.742-.701c.175-.165.435-.172.64-.046.244.151.522.233.81.233h1.776c.411 0 .745-.37.745-.824 0-.372-.228-.699-.554-.796l-2.843-.844c-1.174-.349-1.995-1.464-1.995-2.712 0-1.532 1.203-2.777 2.696-2.817V14.5c0-.276.226-.5.505-.5h1.011c.279 0 .505.224.505.5v1.518a3.64 3.64 0 0 1 1.982.709.498.498 0 0 1 .036.759l-.742.701c-.175.165-.435.172-.64.046a1.529 1.529 0 0 0-.81-.233h-1.776c-.411 0-.745.37-.745.824 0 .372.228.699.554.796l2.843.844c1.174.349 1.995 1.464 1.995 2.712 0 1.533-1.203 2.777-2.696 2.817z"/></symbol><symbol id="step-4" viewBox="0 0 18 32"><path fill="#4189dd" style="fill:var(--color2,#4189dd)" d="m13.122 14.588-6.776-1.975a1.85 1.85 0 0 1-1.33-1.769C5.016 9.825 5.844 9 6.867 9h4.159c.765 0 1.518.231 2.146.656a.98.98 0 0 0 1.223-.125l2.183-2.125c.445-.431.383-1.15-.113-1.531A8.891 8.891 0 0 0 11.038 4V1c0-.55-.452-1-1.004-1H8.026c-.552 0-1.004.45-1.004 1v3h-.157C2.869 4-.344 7.419.027 11.475c.264 2.881 2.472 5.225 5.257 6.038l6.431 1.875c.784.231 1.33.956 1.33 1.769a1.847 1.847 0 0 1-1.851 1.844H7.035a3.843 3.843 0 0 1-2.146-.656.98.98 0 0 0-1.223.125l-2.183 2.125c-.445.431-.383 1.15.113 1.531a8.891 8.891 0 0 0 5.427 1.875v3c0 .55.452 1 1.004 1h2.008c.552 0 1.004-.45 1.004-1v-3.012c2.924-.056 5.665-1.788 6.631-4.544 1.349-3.85-.916-7.8-4.549-8.856z"/></symbol><symbol id="icon-name" viewBox="0 0 27 32"><path fill="#4189dd" style="fill:var(--color1,#4189dd)" d="M13.333 16c4.208 0 7.619-3.581 7.619-8s-3.411-8-7.619-8-7.619 3.581-7.619 8 3.411 8 7.619 8zm5.334 2h-.994c-1.321.637-2.792 1-4.339 1s-3.012-.363-4.339-1h-.994c-4.417 0-8 3.763-8 8.4V29c0 1.656 1.28 3 2.857 3H23.81c1.577 0 2.857-1.344 2.857-3v-2.6c0-4.637-3.583-8.4-8-8.4z"/></symbol><symbol id="icon-phone" viewBox="0 0 32 32"><path fill="#4189dd" style="fill:var(--color1,#4189dd)" d="m31.087 22.612-7-3a1.495 1.495 0 0 0-1.75.431l-3.1 3.787A23.167 23.167 0 0 1 8.162 12.755l3.788-3.1a1.499 1.499 0 0 0 .432-1.75l-3-7A1.514 1.514 0 0 0 7.663.036l-6.5 1.5A1.498 1.498 0 0 0 0 2.998C0 19.03 12.994 31.999 29.001 31.999a1.5 1.5 0 0 0 1.462-1.163l1.5-6.5a1.514 1.514 0 0 0-.875-1.725z"/></symbol><symbol id="icon-mail" viewBox="0 0 43 32"><path fill="#4189dd" style="fill:var(--color1,#4189dd)" d="M41.858 10.567a.501.501 0 0 1 .808.392v17.042c0 2.208-1.792 4-4 4H3.999c-2.208 0-4-1.792-4-4V10.968c0-.417.475-.65.808-.392 1.867 1.45 4.342 3.292 12.842 9.467 1.758 1.283 4.725 3.983 7.683 3.967 2.975.025 6-2.733 7.692-3.967 8.5-6.175 10.967-8.025 12.833-9.475zM21.333 21.333c1.933.033 4.717-2.433 6.117-3.45C38.508 9.858 39.35 9.158 41.9 7.158c.483-.375.767-.958.767-1.575V4c0-2.208-1.792-4-4-4H4C1.792 0 0 1.792 0 4v1.583C0 6.2.283 6.775.767 7.158c2.55 1.992 3.392 2.7 14.45 10.725 1.4 1.017 4.183 3.483 6.117 3.45z"/></symbol><symbol id="icon-adress" viewBox="0 0 24 32"><path fill="#4189dd" style="fill:var(--color1,#4189dd)" d="M10.767 31.354C1.686 18.189 0 16.838 0 12 0 5.373 5.373 0 12 0s12 5.373 12 12c0 4.838-1.686 6.189-10.767 19.354a1.5 1.5 0 0 1-2.466 0zM12 17a5 5 0 1 0-.001-10.001A5 5 0 0 0 12 17z"/></symbol><symbol id="icon_close" viewBox="0 0 32 32"><path d="m8.533 25.333-1.867-1.867 7.467-7.467-7.467-7.467 1.867-1.867L16 14.132l7.467-7.467 1.867 1.867-7.467 7.467 7.467 7.467-1.867 1.867L16 17.866l-7.467 7.467z"/></symbol></defs></svg>